<svg width="19" height="19" viewBox="0 0 19 19" fill="none" xmlns="http://www.w3.org/2000/svg">
<path d="M4.4 15C4.015 15 3.68553 14.8655 3.4116 14.5964C3.13767 14.3274 3.00047 14.0036 3 13.625V5.375C3 4.99687 3.1372 4.67329 3.4116 4.40425C3.686 4.13521 4.01547 4.00046 4.4 4H8.6L10 5.375H15.6C15.985 5.375 16.3147 5.50975 16.5891 5.77925C16.8635 6.04875 17.0005 6.37233 17 6.75V13.625C17 14.0031 16.863 14.3269 16.5891 14.5964C16.3152 14.8659 15.9855 15.0005 15.6 15H4.4ZM4.4 13.625H15.6V6.75H9.4225L8.0225 5.375H4.4V13.625Z" fill="#AEB9E1"/>
</svg>
