<svg width="18" height="18" viewBox="0 0 18 18" fill="none" xmlns="http://www.w3.org/2000/svg">
<path d="M11.5763 10.5472H11.0343L10.8422 10.3619C11.5379 9.55511 11.9202 8.52502 11.9194 7.45969C11.9194 6.57765 11.6578 5.71541 11.1678 4.98202C10.6778 4.24863 9.98124 3.67702 9.16634 3.33948C8.35144 3.00193 7.45474 2.91362 6.58965 3.08569C5.72455 3.25777 4.92991 3.68252 4.30621 4.30621C3.68252 4.92991 3.25777 5.72455 3.08569 6.58965C2.91362 7.45474 3.00193 8.35144 3.33948 9.16634C3.67702 9.98124 4.24863 10.6778 4.98202 11.1678C5.71541 11.6578 6.57765 11.9194 7.45969 11.9194C8.56432 11.9194 9.57976 11.5146 10.3619 10.8422L10.5472 11.0343V11.5763L13.9777 15L15 13.9777L11.5763 10.5472ZM7.45969 10.5472C5.75129 10.5472 4.37221 9.1681 4.37221 7.45969C4.37221 5.75129 5.75129 4.37221 7.45969 4.37221C9.1681 4.37221 10.5472 5.75129 10.5472 7.45969C10.5472 9.1681 9.1681 10.5472 7.45969 10.5472Z" fill="#D42649"/>
</svg>
