<svg width="20" height="20" viewBox="0 0 20 20" fill="none" xmlns="http://www.w3.org/2000/svg">
<path d="M7 11H11V12H7V11ZM7 8.5H13V9.5H7V8.5ZM7 13.5H9.5V14.5H7V13.5Z" fill="#D42649"/>
<path d="M14.9091 4.10714H13.2727V3.57143C13.2727 3.28727 13.1578 3.01475 12.9532 2.81381C12.7486 2.61288 12.4711 2.5 12.1818 2.5H7.81818C7.52885 2.5 7.25138 2.61288 7.04679 2.81381C6.84221 3.01475 6.72727 3.28727 6.72727 3.57143V4.10714H5.09091C4.80158 4.10714 4.5241 4.22003 4.31952 4.42096C4.11493 4.62189 4 4.89441 4 5.17857V16.4286C4 16.7127 4.11493 16.9853 4.31952 17.1862C4.5241 17.3871 4.80158 17.5 5.09091 17.5H14.9091C15.1984 17.5 15.4759 17.3871 15.6805 17.1862C15.8851 16.9853 16 16.7127 16 16.4286V5.17857C16 4.89441 15.8851 4.62189 15.6805 4.42096C15.4759 4.22003 15.1984 4.10714 14.9091 4.10714ZM7.81818 3.57143H12.1818V5.71429H7.81818V3.57143ZM14.9091 16.4286H5.09091V5.17857H6.72727V6.78571H13.2727V5.17857H14.9091V16.4286Z" fill="#D42649"/>
</svg>
