<svg width="12" height="12" viewBox="0 0 12 12" fill="none" xmlns="http://www.w3.org/2000/svg">
<g clip-path="url(#clip0_545_8131)">
<path fill-rule="evenodd" clip-rule="evenodd" d="M6 0.75C4.60761 0.75 3.27226 1.30312 2.28769 2.28769C1.30312 3.27226 0.75 4.60761 0.75 6C0.75 7.39239 1.30312 8.72774 2.28769 9.71231C3.27226 10.6969 4.60761 11.25 6 11.25C7.39239 11.25 8.72774 10.6969 9.71231 9.71231C10.6969 8.72774 11.25 7.39239 11.25 6C11.25 4.60761 10.6969 3.27226 9.71231 2.28769C8.72774 1.30312 7.39239 0.75 6 0.75ZM5.625 3.375V4.125C5.0055 4.125 4.5 4.6305 4.5 5.25C4.5 5.8695 5.0055 6.375 5.625 6.375H6.375C6.5805 6.375 6.75 6.5445 6.75 6.75C6.75 6.9555 6.5805 7.125 6.375 7.125H4.5V7.875H5.625V8.625H6.375V7.875C6.9945 7.875 7.5 7.3695 7.5 6.75C7.5 6.1305 6.9945 5.625 6.375 5.625H5.625C5.52573 5.62441 5.43069 5.58471 5.36049 5.51451C5.29029 5.44431 5.25059 5.34927 5.25 5.25C5.25 5.0445 5.4195 4.875 5.625 4.875H7.5V4.125H6.375V3.375H5.625Z" fill="#AEB9E1"/>
</g>
<defs>
<clipPath id="clip0_545_8131">
<rect width="12" height="12" fill="white"/>
</clipPath>
</defs>
</svg>
