<svg width="12" height="12" viewBox="0 0 12 12" fill="none" xmlns="http://www.w3.org/2000/svg">
<path d="M5.01528 1.82952C5.44328 1.05552 6.55578 1.05552 6.98378 1.82952L10.8568 8.83002C11.2718 9.58002 10.7293 10.5 9.87228 10.5H2.12728C1.26978 10.5 0.72728 9.58002 1.14228 8.83002L5.01528 1.82952ZM6.49878 8.50002C6.5009 8.43313 6.48955 8.3665 6.46541 8.30407C6.44128 8.24165 6.40484 8.18472 6.35827 8.13665C6.3117 8.08859 6.25595 8.05037 6.19432 8.02427C6.1327 7.99817 6.06646 7.98472 5.99953 7.98472C5.9326 7.98472 5.86636 7.99817 5.80474 8.02427C5.74311 8.05037 5.68736 8.08859 5.64079 8.13665C5.59422 8.18472 5.55778 8.24165 5.53365 8.30407C5.50951 8.3665 5.49816 8.43313 5.50028 8.50002C5.50438 8.6297 5.55878 8.75269 5.65196 8.84296C5.74514 8.93324 5.86979 8.98372 5.99953 8.98372C6.12927 8.98372 6.25392 8.93324 6.3471 8.84296C6.44028 8.75269 6.49468 8.6297 6.49878 8.50002ZM6.36928 4.57352C6.35632 4.47936 6.30809 4.39362 6.23433 4.33366C6.16058 4.2737 6.0668 4.24398 5.97197 4.25053C5.87714 4.25707 5.78833 4.29938 5.72351 4.3689C5.65869 4.43842 5.62268 4.52997 5.62278 4.62502L5.62478 6.87552L5.62828 6.92652C5.64124 7.02069 5.68947 7.10643 5.76323 7.16639C5.83698 7.22635 5.93076 7.25606 6.02559 7.24952C6.12042 7.24298 6.20923 7.20067 6.27405 7.13115C6.33887 7.06162 6.37488 6.97008 6.37478 6.87502L6.37278 4.62402L6.36928 4.57352Z" fill="#AEB9E1"/>
</svg>
