<svg width="21" height="21" viewBox="0 0 21 21" fill="none" xmlns="http://www.w3.org/2000/svg">
<path d="M5.72526 4.37521C5.65516 4.30368 5.57166 4.24667 5.47952 4.20743C5.38738 4.16819 5.28841 4.1475 5.18826 4.14652C5.08812 4.14555 4.98877 4.16431 4.89588 4.20175C4.80299 4.23919 4.71839 4.29456 4.64691 4.36471C3.83859 5.16874 3.19737 6.12478 2.76018 7.17773C2.323 8.23069 2.0985 9.35975 2.09961 10.4999C2.09843 11.6837 2.34051 12.8552 2.81085 13.9417C3.28119 15.0281 3.96975 16.0063 4.83381 16.8156C4.97926 16.9501 5.17138 17.0225 5.36939 17.0176C5.5674 17.0127 5.7557 16.9308 5.89431 16.7894C6.22611 16.4576 6.18516 15.9294 5.86596 15.6239C5.17244 14.9629 4.62055 14.1679 4.24384 13.287C3.86713 12.4061 3.67346 11.4579 3.67461 10.4999C3.67461 8.56156 4.45266 6.80386 5.71476 5.52496C6.01926 5.21521 6.05076 4.70071 5.72526 4.37521ZM7.57431 6.22636C7.43603 6.08407 7.24698 6.0024 7.04859 5.99925C6.85019 5.9961 6.65865 6.07173 6.51591 6.20956C5.94767 6.7701 5.49664 7.43812 5.18911 8.17469C4.88157 8.91126 4.72367 9.70166 4.72461 10.4999C4.72461 12.2765 5.49111 13.8735 6.71226 14.9781C6.8565 15.1053 7.04416 15.1721 7.23632 15.1647C7.42849 15.1572 7.61042 15.0761 7.74441 14.9382C8.08881 14.5938 8.02476 14.052 7.70136 13.7475C7.25821 13.3307 6.90519 12.8274 6.6641 12.2689C6.42301 11.7103 6.29896 11.1082 6.29961 10.4999C6.29961 9.29236 6.77946 8.19616 7.55961 7.39186C7.85991 7.08316 7.90926 6.56026 7.57431 6.22636ZM13.4249 6.22531C13.5632 6.08302 13.7522 6.00135 13.9506 5.9982C14.149 5.99505 14.3406 6.07068 14.4833 6.20851C15.0517 6.76918 15.5028 7.43736 15.8103 8.17412C16.1179 8.91088 16.2757 9.70148 16.2746 10.4999C16.2746 12.2765 15.5081 13.8735 14.287 14.9781C14.1427 15.1053 13.9551 15.1721 13.7629 15.1647C13.5707 15.1572 13.3888 15.0761 13.2548 14.9382C12.9104 14.5938 12.9745 14.052 13.2979 13.7475C13.741 13.3307 14.094 12.8274 14.3351 12.2689C14.5762 11.7103 14.7003 11.1082 14.6996 10.4999C14.6996 9.29236 14.2198 8.19616 13.4396 7.39186C13.1393 7.08316 13.09 6.55921 13.4249 6.22531ZM15.274 4.37521C15.3441 4.30368 15.4276 4.24667 15.5197 4.20743C15.6118 4.16819 15.7108 4.1475 15.811 4.14652C15.9111 4.14555 16.0105 4.16431 16.1033 4.20175C16.1962 4.23919 16.2808 4.29456 16.3523 4.36471C17.1606 5.16874 17.8019 6.12478 18.239 7.17773C18.6762 8.23069 18.9007 9.35975 18.8996 10.4999C18.9008 11.6837 18.6587 12.8552 18.1884 13.9417C17.718 15.0281 17.0295 16.0063 16.1654 16.8156C16.02 16.9501 15.8278 17.0225 15.6298 17.0176C15.4318 17.0127 15.2435 16.9308 15.1049 16.7894C14.7731 16.4576 14.8141 15.9294 15.1343 15.6239C15.8276 14.9628 16.3793 14.1677 16.7559 13.2869C17.1324 12.406 17.3259 11.4578 17.3246 10.4999C17.3246 8.56156 16.5466 6.80386 15.2845 5.52496C14.98 5.21521 14.9485 4.70071 15.274 4.37521ZM10.4996 8.92486C10.0819 8.92486 9.68129 9.09079 9.38592 9.38616C9.09055 9.68153 8.92461 10.0821 8.92461 10.4999C8.92461 10.9176 9.09055 11.3182 9.38592 11.6135C9.68129 11.9089 10.0819 12.0749 10.4996 12.0749C10.9173 12.0749 11.3179 11.9089 11.6133 11.6135C11.9087 11.3182 12.0746 10.9176 12.0746 10.4999C12.0746 10.0821 11.9087 9.68153 11.6133 9.38616C11.3179 9.09079 10.9173 8.92486 10.4996 8.92486Z" fill="#D42649"/>
</svg>
