<svg width="35" height="35" viewBox="0 0 35 35" fill="none" xmlns="http://www.w3.org/2000/svg">
<path d="M29.1663 2.9165H14.583C13.4227 2.9165 12.3099 3.37744 11.4894 4.19791C10.6689 5.01838 10.208 6.13118 10.208 7.2915V17.4998C10.208 18.6602 10.6689 19.773 11.4894 20.5934C12.3099 21.4139 13.4227 21.8748 14.583 21.8748H29.1663C30.3267 21.8748 31.4395 21.4139 32.2599 20.5934C33.0804 19.773 33.5413 18.6602 33.5413 17.4998V7.2915C33.5413 6.13118 33.0804 5.01838 32.2599 4.19791C31.4395 3.37744 30.3267 2.9165 29.1663 2.9165ZM30.6247 17.4998C30.6247 17.8866 30.471 18.2575 30.1975 18.531C29.9241 18.8045 29.5531 18.9582 29.1663 18.9582H14.583C14.1962 18.9582 13.8253 18.8045 13.5518 18.531C13.2783 18.2575 13.1247 17.8866 13.1247 17.4998V7.2915C13.1247 6.90473 13.2783 6.5338 13.5518 6.26031C13.8253 5.98682 14.1962 5.83317 14.583 5.83317H29.1663C29.5531 5.83317 29.9241 5.98682 30.1975 6.26031C30.471 6.5338 30.6247 6.90473 30.6247 7.2915V17.4998ZM25.5205 11.6665C24.9809 11.6697 24.4615 11.8723 24.0622 12.2353C23.7486 11.9502 23.359 11.7624 22.9406 11.6947C22.5223 11.6269 22.0933 11.6821 21.7058 11.8535C21.3183 12.025 20.9889 12.3053 20.7577 12.6605C20.5264 13.0156 20.4033 13.4302 20.4033 13.854C20.4033 14.2778 20.5264 14.6924 20.7577 15.0476C20.9889 15.4027 21.3183 15.683 21.7058 15.8545C22.0933 16.0259 22.5223 16.0811 22.9406 16.0134C23.359 15.9456 23.7486 15.7578 24.0622 15.4728C24.3255 15.7121 24.6433 15.8836 24.9879 15.9723C25.3326 16.0611 25.6936 16.0644 26.0398 15.9821C26.386 15.8997 26.7069 15.7341 26.9746 15.4996C27.2424 15.2652 27.4488 14.9689 27.5762 14.6366C27.7035 14.3043 27.7478 13.9459 27.7053 13.5926C27.6628 13.2393 27.5347 12.9017 27.3322 12.6091C27.1296 12.3164 26.8588 12.0776 26.5431 11.9134C26.2274 11.7491 25.8764 11.6644 25.5205 11.6665ZM23.333 24.7915C22.9462 24.7915 22.5753 24.9451 22.3018 25.2186C22.0283 25.4921 21.8747 25.8631 21.8747 26.2498V27.7082C21.8747 28.0949 21.721 28.4659 21.4475 28.7394C21.174 29.0129 20.8031 29.1665 20.4163 29.1665H5.83301C5.44623 29.1665 5.0753 29.0129 4.80181 28.7394C4.52832 28.4659 4.37467 28.0949 4.37467 27.7082V21.8748H5.83301C6.21978 21.8748 6.59071 21.7212 6.86421 21.4477C7.1377 21.1742 7.29134 20.8033 7.29134 20.4165C7.29134 20.0297 7.1377 19.6588 6.86421 19.3853C6.59071 19.1118 6.21978 18.9582 5.83301 18.9582H4.37467V17.4998C4.37467 17.1131 4.52832 16.7421 4.80181 16.4686C5.0753 16.1951 5.44623 16.0415 5.83301 16.0415C6.21978 16.0415 6.59071 15.8879 6.86421 15.6144C7.1377 15.3409 7.29134 14.9699 7.29134 14.5832C7.29134 14.1964 7.1377 13.8255 6.86421 13.552C6.59071 13.2785 6.21978 13.1248 5.83301 13.1248C4.67269 13.1248 3.55989 13.5858 2.73942 14.4062C1.91894 15.2267 1.45801 16.3395 1.45801 17.4998V27.7082C1.45801 28.8685 1.91894 29.9813 2.73942 30.8018C3.55989 31.6222 4.67269 32.0832 5.83301 32.0832H20.4163C21.5767 32.0832 22.6895 31.6222 23.5099 30.8018C24.3304 29.9813 24.7913 28.8685 24.7913 27.7082V26.2498C24.7913 25.8631 24.6377 25.4921 24.3642 25.2186C24.0907 24.9451 23.7198 24.7915 23.333 24.7915ZM8.74968 26.2498H10.208C10.5948 26.2498 10.9657 26.0962 11.2392 25.8227C11.5127 25.5492 11.6663 25.1783 11.6663 24.7915C11.6663 24.4047 11.5127 24.0338 11.2392 23.7603C10.9657 23.4868 10.5948 23.3332 10.208 23.3332H8.74968C8.3629 23.3332 7.99197 23.4868 7.71848 23.7603C7.44499 24.0338 7.29134 24.4047 7.29134 24.7915C7.29134 25.1783 7.44499 25.5492 7.71848 25.8227C7.99197 26.0962 8.3629 26.2498 8.74968 26.2498Z" fill="white"/>
</svg>
