<svg width="12" height="12" viewBox="0 0 12 12" fill="none" xmlns="http://www.w3.org/2000/svg">
<path d="M5.63815 0.481191C5.79968 0.203861 6.20032 0.203861 6.36185 0.48119L8.07316 3.41931C8.13233 3.52091 8.23148 3.59294 8.34638 3.61783L11.6695 4.33744C11.9832 4.40537 12.107 4.7864 11.8932 5.02573L9.62767 7.5612C9.54933 7.64887 9.51146 7.76543 9.5233 7.8824L9.86582 11.2653C9.89814 11.5846 9.57401 11.8201 9.28032 11.6907L6.16886 10.3195C6.06128 10.2721 5.93872 10.2721 5.83114 10.3195L2.71968 11.6907C2.42599 11.8201 2.10186 11.5846 2.13419 11.2653L2.4767 7.8824C2.48854 7.76543 2.45067 7.64887 2.37233 7.5612L0.106835 5.02573C-0.107006 4.7864 0.0168003 4.40537 0.330472 4.33744L3.65362 3.61783C3.76852 3.59294 3.86767 3.52091 3.92684 3.41931L5.63815 0.481191Z" fill="#AEB9E1"/>
</svg>
